# xmcd
#
# Track frame offsets:
#	150
#	17176
#	34296
#	50028
#	63771
#	76677
#	96524
#	110187
#	129415
#	145625
#	162800
#	180571
#	196206
#	212192
#	227254
#	243413
#	254567
#	268660
#	281804
#	295412
#	311562
#	325845
#
# Disc length: 4509 seconds
#
# Revision: 0
# Processed by: cddbd v1.5.2PL0 Copyright (c) Steve Scherf et al.
# Submitted via: EasyCDDAExtractor 16.0.9.1
#
DISCID=46119b16
DTITLE=Hott Country Volume 241 CAN
DYEAR=2016
DGENRE=country
TTITLE0=Sam Hunt - Make You Miss Me
TTITLE1=Jordan Rager ft. Jason Aldean - Southern Boy
TTITLE2=Autumn Hill - Mixtape
TTITLE3=Kane Brown - Used To Love You Sober
TTITLE4=Granger Smith - If The Boot Fits
TTITLE5=Brea Lawrenson - Lynchburg
TTITLE6=David Ray - Light It Up
TTITLE7=Dan and Shay -  From The Ground Up
TTITLE8=LANco - Long Live Tonight
TTITLE9=Thomas Rhett - T-Shirt
TTITLE10=Johnny Reid - What Love Is All About
TTITLE11=Jesse Mast - Bad Blood
TTITLE12=Martina McBride - Reckless
TTITLE13=Madeline Merlo - Watcha Wanna Do About It
TTITLE14=Clare Dunn - Tuxedo
TTITLE15=A Thousand Horses - Southernality
TTITLE16=Brett Young - Sleep Without You
TTITLE17=Hunter Brothers - El Dorado
TTITLE18=Eric Church - Record Year
TTITLE19=Tucker Beathard - Rock On
TTITLE20=Chase Rice - Whisper
TTITLE21=Brooke Eden - Daddy's Money
EXTD=
EXTT0=
EXTT1=
EXTT2=
EXTT3=
EXTT4=
EXTT5=
EXTT6=
EXTT7=
EXTT8=
EXTT9=
EXTT10=
EXTT11=
EXTT12=
EXTT13=
EXTT14=
EXTT15=
EXTT16=
EXTT17=
EXTT18=
EXTT19=
EXTT20=
EXTT21=
PLAYORDER=
